<svg xmlns="http://www.w3.org/2000/svg" xmlns:xlink="http://www.w3.org/1999/xlink" viewBox="0 0 360.9 210.55"><defs><style>.cls-1{fill:#f89a6e;}.cls-2{fill:#f2a62f;}.cls-3{fill:#eaedfb;}.cls-4{fill:#404dc4;}.cls-5{fill:#5b62db;}.cls-6{fill:#fff;}.cls-7{opacity:0.57;}.cls-11,.cls-26,.cls-8,.cls-9{fill:none;}.cls-8{stroke:#a2c9f8;stroke-width:3.01px;}.cls-11,.cls-26,.cls-8{stroke-linecap:round;stroke-linejoin:round;}.cls-11,.cls-9{stroke:#fff;}.cls-9{stroke-miterlimit:10;stroke-width:2.81px;}.cls-10{fill:#f04365;}.cls-11{stroke-width:4.21px;}.cls-12{fill:#1b1754;}.cls-13{fill:#243051;}.cls-14{fill:#2a2b7b;}.cls-15{fill:#d72e57;}.cls-16{fill:#e88057;}.cls-17{clip-path:url(#clip-path);}.cls-18{fill:#fdd63b;}.cls-19{clip-path:url(#clip-path-2);}.cls-20{fill:#f97d7d;}.cls-21{clip-path:url(#clip-path-3);}.cls-22{fill:#fafafa;}.cls-23{fill:#eb9924;}.cls-24{fill:#8bbdf8;}.cls-25{clip-path:url(#clip-path-4);}.cls-26{stroke:#102236;stroke-width:0.65px;}</style><clipPath id="clip-path" transform="translate(-295.16 -145.55)"><path class="cls-1" d="M592.86,244a8.28,8.28,0,1,0,11.7-.44A8.28,8.28,0,0,0,592.86,244Z"/></clipPath><clipPath id="clip-path-2" transform="translate(-295.16 -145.55)"><path class="cls-1" d="M376.51,158.8a8.28,8.28,0,1,0,8.43-8.13A8.28,8.28,0,0,0,376.51,158.8Z"/></clipPath><clipPath id="clip-path-3" transform="translate(-295.16 -145.55)"><path class="cls-2" d="M541.77,353.41l9.89-25.54a1.42,1.42,0,0,1,2.66,0l9.88,25.54Z"/></clipPath><clipPath id="clip-path-4" transform="translate(-295.16 -145.55)"><rect class="cls-2" x="339.31" y="306.05" width="64.89" height="19.7" rx="5.14"/></clipPath></defs><title>Fichier 1</title><g id="Calque_2" data-name="Calque 2"><g id="OBJECTS"><path class="cls-3" d="M602,354.93s54.25-24.13,53-72.81-52.68-71.33-87.59-41.27-57.51,4.85-75.59-20.55-58.44-57.45-111.37-42.64c-55.45,15.52-72.52,71.67-67,109.15,4,26.92,18.38,49.74,38,67.28.64.57,1.3,1.13,2,1.69Z" transform="translate(-295.16 -145.55)"/><rect class="cls-4" x="159.3" y="193.29" width="45.36" height="11.1"/><path class="cls-5" d="M508.38,355.73H445.9a2.89,2.89,0,0,1-2.9-2.89h0a2.9,2.9,0,0,1,2.9-2.9h62.48a2.9,2.9,0,0,1,2.9,2.9h0A2.89,2.89,0,0,1,508.38,355.73Z" transform="translate(-295.16 -145.55)"/><path class="cls-5" d="M579.18,211.13a6.54,6.54,0,0,0-6.54-6.54h-191a6.54,6.54,0,0,0-6.54,6.54V321.69H579.18Z" transform="translate(-295.16 -145.55)"/><rect class="cls-3" x="88.69" y="68.4" width="186.57" height="99.2"/><path class="cls-6" d="M381.64,340h191a6.54,6.54,0,0,0,6.54-6.54V321.69H375.1v11.75A6.54,6.54,0,0,0,381.64,340Z" transform="translate(-295.16 -145.55)"/><path class="cls-4" d="M481,330.83a3.88,3.88,0,1,1-3.88-3.88A3.88,3.88,0,0,1,481,330.83Z" transform="translate(-295.16 -145.55)"/><g class="cls-7"><polygon class="cls-6" points="140.5 68.4 97.91 167.61 112.98 167.61 156.04 68.4 140.5 68.4"/><polygon class="cls-6" points="249.17 68.4 206.58 167.61 221.65 167.61 264.71 68.4 249.17 68.4"/><polygon class="cls-6" points="175.27 68.4 132.67 167.61 177.29 167.61 220.35 68.4 175.27 68.4"/></g><rect class="cls-6" x="101.98" y="89.11" width="79.18" height="56.09"/><rect class="cls-8" x="101.98" y="89.11" width="79.18" height="56.09"/><line class="cls-9" x1="190.24" y1="93.34" x2="262.62" y2="93.34"/><line class="cls-9" x1="190.24" y1="110.26" x2="234.74" y2="110.26"/><line class="cls-9" x1="190.24" y1="101.71" x2="203" y2="101.71"/><line class="cls-9" x1="190.24" y1="121.26" x2="262.62" y2="121.26"/><line class="cls-9" x1="190.24" y1="138.19" x2="262.62" y2="138.19"/><line class="cls-9" x1="190.24" y1="129.64" x2="232.94" y2="129.64"/><circle class="cls-10" cx="435.16" cy="262.37" r="17.4" transform="translate(-195.82 498.17) rotate(-79.72)"/><line class="cls-11" x1="131.19" y1="116.82" x2="148.28" y2="116.82"/><polygon class="cls-12" points="296.22 150.24 299.98 205.52 305.92 205.51 307.15 150.21 296.22 150.24"/><path class="cls-13" d="M590.22,355.6H601v-5h-5.8a5,5,0,0,0-5,5Z" transform="translate(-295.16 -145.55)"/><path class="cls-13" d="M603,355.6h11.29l-.46-5h-5.81a5,5,0,0,0-5,5Z" transform="translate(-295.16 -145.55)"/><polygon class="cls-14" points="314.92 150.27 318.7 205.03 312.89 205.22 303.19 150.27 314.92 150.27"/><path class="cls-10" d="M599.94,267.35l15.41,13.76a3.5,3.5,0,0,0,4.53.1h0a3.49,3.49,0,0,0,.45-5s-7.45-10-11.62-13.31Z" transform="translate(-295.16 -145.55)"/><path class="cls-1" d="M623.73,300.84a3.7,3.7,0,1,1-3.7-3.7A3.69,3.69,0,0,1,623.73,300.84Z" transform="translate(-295.16 -145.55)"/><path class="cls-10" d="M615.26,279.56l2,18.41h5.29l-1.21-19a3.06,3.06,0,0,0-3.54-2.82h0A3.08,3.08,0,0,0,615.26,279.56Z" transform="translate(-295.16 -145.55)"/><path class="cls-10" d="M598.36,260.36s-7.56.24-8,7.8.89,27.66.89,27.66h18.79l.48-24.56c1.17-6.57-2.15-10.74-8.89-11A26.88,26.88,0,0,0,598.36,260.36Z" transform="translate(-295.16 -145.55)"/><polygon class="cls-15" points="315.29 131.18 312.05 128.29 315.17 137.16 315.29 131.18"/><path class="cls-1" d="M572.76,253.85a3.7,3.7,0,1,1-3.7-3.71A3.7,3.7,0,0,1,572.76,253.85Z" transform="translate(-295.16 -145.55)"/><path class="cls-10" d="M580.73,274l-8-18.11-5.08,1.61,7.19,18.32a3.06,3.06,0,0,0,4,2h0A3.06,3.06,0,0,0,580.73,274Z" transform="translate(-295.16 -145.55)"/><path class="cls-10" d="M595.42,261a111.86,111.86,0,0,0-18.93,10.49,3.48,3.48,0,0,0-1.61,4.23h0a3.49,3.49,0,0,0,4.53,2.08l15.19-7.39Z" transform="translate(-295.16 -145.55)"/><polygon class="cls-15" points="295.16 126.96 295.24 122.61 291.79 128.6 295.16 126.96"/><path class="cls-1" d="M596.17,256.06l.24,5.08a2.81,2.81,0,0,0,1.77,2.49h0a2.82,2.82,0,0,0,3.85-2.88l-.31-5Z" transform="translate(-295.16 -145.55)"/><path class="cls-16" d="M596.34,259.69s4.71.65,5.38-4-4.48-2.72-4.48-2.72l-1,3.8Z" transform="translate(-295.16 -145.55)"/><path class="cls-1" d="M592.86,244a8.28,8.28,0,1,0,11.7-.44A8.28,8.28,0,0,0,592.86,244Z" transform="translate(-295.16 -145.55)"/><g class="cls-17"><path class="cls-13" d="M601.35,252.16s-3.26,5.92,1.33,7.55,5.92-11.17,5.92-11.17l-5-9.75L591.5,238l-.68,4.2s1.16,4.09,11.33,7.94Z" transform="translate(-295.16 -145.55)"/><polygon class="cls-13" points="303.72 101.96 305.15 106.78 308.81 104.65 303.72 101.96"/></g><path class="cls-1" d="M600.55,250.51a2.21,2.21,0,1,0,3.13-.11A2.21,2.21,0,0,0,600.55,250.51Z" transform="translate(-295.16 -145.55)"/><path class="cls-18" d="M590.46,247s-.4-5.92,4.58-9A8.51,8.51,0,0,1,607,241.1c1.07,2,1.67,4,1,7.85Z" transform="translate(-295.16 -145.55)"/><path class="cls-2" d="M607.69,249.8h-.1l-19.87-2.14a.84.84,0,0,1-.76-.95.86.86,0,0,1,.95-.76l19.87,2.14a.86.86,0,0,1-.09,1.71Z" transform="translate(-295.16 -145.55)"/><circle class="cls-5" cx="587.34" cy="173.31" r="15.48" transform="translate(-11.02 559.81) rotate(-76.76)"/><path class="cls-6" d="M589.61,180a2.27,2.27,0,0,1-4.53,0A2.27,2.27,0,0,1,589.61,180Zm-.27-15.25-.1,11.16h-3.82c0-4.22-.07-6.91-.07-11.16Z" transform="translate(-295.16 -145.55)"/><path class="cls-3" d="M488.46,145.74l1.27,3.31a7.7,7.7,0,0,0,4.42,4.42l3.31,1.27L494.15,156a7.7,7.7,0,0,0-4.42,4.42l-1.27,3.31-1.28-3.31a7.7,7.7,0,0,0-4.42-4.42l-3.31-1.28,3.31-1.27a7.7,7.7,0,0,0,4.42-4.42Z" transform="translate(-295.16 -145.55)"/><path class="cls-3" d="M524,174.25l.85,2.22a5.17,5.17,0,0,0,3,3l2.21.85-2.21.85a5.17,5.17,0,0,0-3,3l-.85,2.22-.86-2.22a5.18,5.18,0,0,0-3-3l-2.22-.85,2.22-.85a5.18,5.18,0,0,0,3-3Z" transform="translate(-295.16 -145.55)"/><path class="cls-3" d="M308.81,193.2l.69,1.81a4.16,4.16,0,0,0,2.41,2.4l1.8.7-1.8.69a4.18,4.18,0,0,0-2.41,2.41l-.69,1.8-.7-1.8a4.18,4.18,0,0,0-2.41-2.41l-1.8-.69,1.8-.7a4.16,4.16,0,0,0,2.41-2.4Z" transform="translate(-295.16 -145.55)"/><path class="cls-3" d="M637.1,202.33l.69,1.8a4.18,4.18,0,0,0,2.41,2.41l1.8.69-1.8.7a4.19,4.19,0,0,0-2.41,2.4l-.69,1.81-.69-1.81a4.19,4.19,0,0,0-2.41-2.4l-1.8-.7,1.8-.69a4.18,4.18,0,0,0,2.41-2.41Z" transform="translate(-295.16 -145.55)"/><path class="cls-1" d="M387,165.55l3.56,3.62a2.84,2.84,0,0,0,3,.67h0a2.82,2.82,0,0,0,.94-4.71l-3.6-3.55Z" transform="translate(-295.16 -145.55)"/><path class="cls-16" d="M389.55,168.14s2.23-4.6,1.34-6.56c-1.92-4.27-5.14,1-5.14,1l1.76,3.53Z" transform="translate(-295.16 -145.55)"/><path class="cls-1" d="M376.51,158.8a8.28,8.28,0,1,0,8.43-8.13A8.28,8.28,0,0,0,376.51,158.8Z" transform="translate(-295.16 -145.55)"/><g class="cls-19"><path class="cls-13" d="M388.26,159.18s1.51,6.59,6,4.74-3-12.27-3-12.27l-10.21-4-9.6,7.47,1.07,6.47s3.42-2.44,13.57-6.36Z" transform="translate(-295.16 -145.55)"/><polygon class="cls-13" points="88.15 11.82 92.44 14.46 93.74 10.43 88.15 11.82"/></g><path class="cls-13" d="M388.73,160.74s7.15,19.46,16,10.58c7.88-7.87-4-12.66-7.27-13.5-2.47-.65-3.42-1.49-6.53-4.39l-6.19.89Z" transform="translate(-295.16 -145.55)"/><path class="cls-1" d="M386.56,158.49a2.22,2.22,0,1,0,2.25-2.18A2.21,2.21,0,0,0,386.56,158.49Z" transform="translate(-295.16 -145.55)"/><path class="cls-18" d="M375.7,160.08s-3.27-5-.44-10.1a8.5,8.5,0,0,1,11.91-3.15c1.92,1.22,3.41,2.63,4.7,6.35Z" transform="translate(-295.16 -145.55)"/><path class="cls-2" d="M392.08,154.05l-.09,0L373.63,162a.86.86,0,0,1-1.13-.45.85.85,0,0,1,.46-1.13l18.35-7.91a.86.86,0,0,1,1.13.46A.85.85,0,0,1,392.08,154.05Z" transform="translate(-295.16 -145.55)"/><path class="cls-12" d="M375.35,206.35l-18.29,18.76L352.38,223l15.83-22.45a4.22,4.22,0,0,1,7-.34h0A6.52,6.52,0,0,1,375.35,206.35Z" transform="translate(-295.16 -145.55)"/><path class="cls-13" d="M345.33,222.94l9.25,6.47,2.5-4.37-4.76-3.33a5,5,0,0,0-7,1.23Z" transform="translate(-295.16 -145.55)"/><path class="cls-14" d="M388,195.17l-18.5,3.3,3.81,7.22h24.83s7.46-.18,4-8.36Z" transform="translate(-295.16 -145.55)"/><path class="cls-14" d="M376.32,200.82,385.13,230l-5,2.85-13.93-28.17a4.22,4.22,0,0,1,3.29-6.19h0C371.28,198.29,375.55,199.23,376.32,200.82Z" transform="translate(-295.16 -145.55)"/><path class="cls-13" d="M377.89,239.46l9.23-4.86-2-4.62-5.14,2.7a5,5,0,0,0-2.1,6.78Z" transform="translate(-295.16 -145.55)"/><path class="cls-10" d="M386.93,173.22s.75-3.26,1.7-4.27c.67-.72,3.1-3,4.44-3.5a1.35,1.35,0,0,1,1.19.12,19.71,19.71,0,0,1,8.14,10.62c2.07,6.23,2.52,24,2.52,24-5.9,3.83-16.93-5-16.93-5C388.28,184.12,385.55,183.56,386.93,173.22Z" transform="translate(-295.16 -145.55)"/><path class="cls-15" d="M385.75,195.57l8.69.4a4,4,0,0,0,4.4-3.9l.38-15Z" transform="translate(-295.16 -145.55)"/><path class="cls-20" d="M377.92,193.44l-5.14-1.83a1.25,1.25,0,0,0-1.22.21l-2.29,1.86a1.15,1.15,0,0,0,.28,1.95h0a1.14,1.14,0,0,0,1.2-.19l1.1-1s3.77,2.16,5.55,1.57Z" transform="translate(-295.16 -145.55)"/><path class="cls-10" d="M391,170.61l-.9,16.83L376.43,191l.57,5.12,16.73-1.75a4.59,4.59,0,0,0,3.09-1.5,3.26,3.26,0,0,0,.74-1.77l2.07-17.45Z" transform="translate(-295.16 -145.55)"/><path class="cls-13" d="M368,200.15l19.42-3.4a1.09,1.09,0,0,0,.89-1.27h0a1.08,1.08,0,0,0-1.26-.88L367.62,198a1.11,1.11,0,0,0-.89,1.27h0A1.1,1.1,0,0,0,368,200.15Z" transform="translate(-295.16 -145.55)"/><path class="cls-13" d="M368.14,199.11a.41.41,0,0,1-.3-.14l-11.69-13.25a.41.41,0,1,1,.61-.54l11.69,13.25a.4.4,0,0,1,0,.57A.43.43,0,0,1,368.14,199.11Z" transform="translate(-295.16 -145.55)"/><path class="cls-13" d="M390.86,165.26s5.54,13.32,13.12,6.68-8.26-10.47-8.26-10.47Z" transform="translate(-295.16 -145.55)"/><path class="cls-2" d="M541.77,353.41l9.89-25.54a1.42,1.42,0,0,1,2.66,0l9.88,25.54Z" transform="translate(-295.16 -145.55)"/><g class="cls-21"><rect class="cls-22" x="248.9" y="187.81" width="17.55" height="4.91"/><rect class="cls-22" x="247.95" y="197.1" width="19.84" height="4.91"/></g><path class="cls-23" d="M565.75,355.56H540.34a1.78,1.78,0,0,1-1.77-1.78h0a1.78,1.78,0,0,1,1.77-1.78h25.41a1.78,1.78,0,0,1,1.77,1.78h0A1.78,1.78,0,0,1,565.75,355.56Z" transform="translate(-295.16 -145.55)"/><rect class="cls-24" x="52.24" y="178.43" width="7.73" height="21.84"/><rect class="cls-24" x="92.98" y="178.43" width="7.73" height="21.84"/><rect class="cls-5" x="44.16" y="199.05" width="64.18" height="11.02" rx="3.37"/><rect class="cls-2" x="44.16" y="160.5" width="64.89" height="19.7" rx="5.14"/><g class="cls-25"><polygon class="cls-6" points="43.34 187.11 31.65 187.11 58.9 156.88 70.59 156.88 43.34 187.11"/><polygon class="cls-6" points="90.84 187.11 79.15 187.11 106.4 156.88 118.1 156.88 90.84 187.11"/><polygon class="cls-6" points="66.61 187.11 54.91 187.11 82.16 156.88 93.86 156.88 66.61 187.11"/></g><line class="cls-26" x1="0.33" y1="210.22" x2="360.57" y2="210.22"/></g></g></svg>